<svg width="1258" height="1081" viewBox="0 0 1258 1081" fill="none" xmlns="http://www.w3.org/2000/svg">
<path fill-rule="evenodd" clip-rule="evenodd" d="M699.058 23.8519C648.912 8.46897 595.659 0.19043 540.472 0.19043C242.238 0.19043 0.472046 241.957 0.472046 540.19C0.472046 838.424 242.238 1080.19 540.472 1080.19C595.659 1080.19 648.912 1071.91 699.058 1056.53V23.8519Z" fill="#FDFDFD"/>
<ellipse rx="33.3351" ry="35.1041" transform="matrix(1 0 0 -1 242.764 933.209)" fill="#181818"/>
<circle r="24.4515" transform="matrix(1 0 0 -1 461.225 193.81)" fill="#181818"/>
<rect x="898.07" y="0.190186" width="359.589" height="359.589" fill="#F5F5F5"/>
<rect x="538.482" y="0.190186" width="359.589" height="359.589" fill="#C4C4C4"/>
<rect x="538.482" y="720.602" width="719.177" height="359.589" fill="#737373"/>
<rect x="889.585" y="720.602" width="368.074" height="359.589" fill="white"/>
<rect x="538.482" y="359.779" width="719.178" height="360.822" fill="#181818"/>
<path fill-rule="evenodd" clip-rule="evenodd" d="M1161.23 99.6322L1080.88 96.9853L1080.88 97.0296C1060.09 96.2372 1039 103.43 1022.61 118.774C990.057 149.255 988.373 200.357 1018.85 232.915C1049.33 265.472 1100.44 267.156 1132.99 236.675C1149.38 221.334 1157.95 200.77 1158.53 179.976L1158.58 179.977L1161.23 99.6322Z" fill="#181818"/>
<path fill-rule="evenodd" clip-rule="evenodd" d="M1119.07 139.817L1082.23 138.603L1082.22 138.623C1072.69 138.26 1063.02 141.559 1055.5 148.596C1040.57 162.575 1039.8 186.013 1053.78 200.945C1067.76 215.877 1091.19 216.649 1106.13 202.669C1113.64 195.634 1117.57 186.203 1117.84 176.666L1117.86 176.667L1119.07 139.817Z" fill="white"/>
<path fill-rule="evenodd" clip-rule="evenodd" d="M346.779 363.501L350.5 543.024L350.598 543.022C351.32 589.493 369.891 635.669 406.078 670.386C477.964 739.353 592.148 736.986 661.115 665.099C730.081 593.213 727.714 479.029 655.828 410.063C619.648 375.353 572.755 358.712 526.305 359.908L526.302 359.779L346.779 363.501Z" fill="#1567E3"/>
<path fill-rule="evenodd" clip-rule="evenodd" d="M441.525 455.344L443.312 541.551L443.359 541.55C443.706 563.866 452.624 586.039 470.001 602.711C504.521 635.829 559.352 634.692 592.47 600.172C625.588 565.652 624.451 510.821 589.931 477.703C572.558 461.035 550.039 453.044 527.734 453.618L527.732 453.557L441.525 455.344Z" fill="#181818"/>
<circle cx="1077.86" cy="900.555" r="145.177" fill="#E5E5E5"/>
<circle cx="1011.59" cy="858.86" r="22.6295" transform="rotate(-30 1011.59 858.86)" fill="#181818"/>
<circle cx="1074.89" cy="822.315" r="22.6295" transform="rotate(-30 1074.89 822.315)" fill="#181818"/>
<circle cx="1080.84" cy="978.794" r="22.6295" transform="rotate(-30 1080.84 978.794)" fill="#181818"/>
<circle cx="1144.14" cy="942.25" r="22.6295" transform="rotate(-30 1144.14 942.25)" fill="#181818"/>
<circle cx="1148.71" cy="859.653" r="22.6295" transform="rotate(-30 1148.71 859.653)" fill="#181818"/>
<circle cx="1007.02" cy="941.457" r="22.6295" transform="rotate(-30 1007.02 941.457)" fill="#181818"/>
<path d="M538.48 726.62L636.527 883.174L440.432 883.174L538.48 726.62Z" fill="#C4C4C4"/>
<rect x="440.432" y="883.174" width="196.096" height="197.017" fill="#181818"/>
<rect x="591.914" y="306.566" width="50.6322" height="130.982" transform="rotate(-90 591.914 306.566)" fill="#181818"/>
<rect x="591.914" y="104.036" width="50.6322" height="130.982" transform="rotate(-90 591.914 104.036)" fill="#181818"/>
<rect x="722.896" y="255.934" width="50.6322" height="122.369" transform="rotate(-90 722.896 255.934)" fill="#181818"/>
<rect x="591.288" y="205.301" width="50.6322" height="130.982" transform="rotate(-90 591.288 205.301)" fill="#181818"/>
<rect x="722.27" y="154.667" width="50.6322" height="122.995" transform="rotate(-90 722.27 154.667)" fill="#181818"/>
<circle cx="787.979" cy="540.19" r="10.1858" fill="white"/>
<circle cx="873.633" cy="540.19" r="10.1858" fill="white"/>
<circle cx="959.287" cy="540.19" r="10.1858" fill="white"/>
<circle cx="1044.94" cy="540.19" r="10.1858" fill="white"/>
<circle cx="1130.6" cy="540.19" r="10.1858" fill="white"/>
<circle cx="787.979" cy="468.049" r="10.1858" fill="white"/>
<circle cx="873.633" cy="468.049" r="10.1858" fill="white"/>
<circle cx="959.287" cy="468.049" r="10.1858" fill="white"/>
<circle cx="1044.94" cy="468.049" r="10.1858" fill="white"/>
<circle cx="1130.6" cy="468.049" r="10.1858" fill="white"/>
<circle cx="791.336" cy="612.332" r="10.1858" fill="white"/>
<circle cx="876.99" cy="612.332" r="10.1858" fill="white"/>
<circle cx="962.644" cy="612.332" r="10.1858" fill="white"/>
<circle cx="1048.3" cy="612.332" r="10.1858" fill="white"/>
<circle cx="1133.95" cy="612.332" r="10.1858" fill="white"/>
</svg>
