<svg width="1049" height="1081" viewBox="0 0 1049 1081" fill="none" xmlns="http://www.w3.org/2000/svg">
<path fill-rule="evenodd" clip-rule="evenodd" d="M490.058 23.8519C454.881 8.46897 417.524 0.19043 378.81 0.19043C169.599 0.19043 0 241.957 0 540.19C0 838.424 169.599 1080.19 378.81 1080.19C417.524 1080.19 454.881 1071.91 490.058 1056.53V23.8519Z" fill="#FDFDFD"/>
<ellipse rx="33.3351" ry="35.1041" transform="matrix(1 0 0 -1 33.7645 933.209)" fill="#181818"/>
<circle r="24.4515" transform="matrix(1 0 0 -1 252.225 193.81)" fill="#181818"/>
<rect x="689.07" y="0.190186" width="359.589" height="359.589" fill="#F5F5F5"/>
<rect x="329.482" y="0.190186" width="359.589" height="359.589" fill="#C4C4C4"/>
<rect x="329.482" y="720.602" width="719.177" height="359.589" fill="#737373"/>
<rect x="680.585" y="720.602" width="368.074" height="359.589" fill="white"/>
<rect x="329.482" y="359.779" width="719.178" height="360.822" fill="#181818"/>
<path fill-rule="evenodd" clip-rule="evenodd" d="M952.229 99.6322L871.884 96.9853L871.882 97.0296C851.091 96.2372 830.003 103.43 813.614 118.774C781.057 149.255 779.373 200.357 809.854 232.915C840.335 265.472 891.437 267.156 923.995 236.675C940.38 221.334 948.946 200.77 949.526 179.976L949.582 179.977L952.229 99.6322Z" fill="#181818"/>
<path fill-rule="evenodd" clip-rule="evenodd" d="M910.074 139.817L873.225 138.603L873.224 138.623C863.689 138.26 854.018 141.559 846.502 148.596C831.57 162.575 830.798 186.013 844.777 200.945C858.757 215.877 882.194 216.649 897.126 202.669C904.641 195.634 908.57 186.203 908.836 176.666L908.86 176.667L910.074 139.817Z" fill="white"/>
<path fill-rule="evenodd" clip-rule="evenodd" d="M137.779 363.501L141.5 543.024L141.598 543.022C142.32 589.493 160.891 635.669 197.078 670.386C268.964 739.353 383.148 736.986 452.115 665.099C521.081 593.213 518.714 479.029 446.828 410.063C410.648 375.353 363.755 358.712 317.305 359.908L317.302 359.779L137.779 363.501Z" fill="#1567E3"/>
<path fill-rule="evenodd" clip-rule="evenodd" d="M232.525 455.344L234.312 541.551L234.359 541.55C234.706 563.866 243.624 586.039 261.001 602.711C295.521 635.829 350.352 634.692 383.47 600.172C416.588 565.652 415.451 510.821 380.931 477.703C363.558 461.035 341.039 453.044 318.734 453.618L318.732 453.557L232.525 455.344Z" fill="#181818"/>
<circle cx="868.864" cy="900.555" r="145.177" fill="#E5E5E5"/>
<circle cx="802.594" cy="858.86" r="22.6295" transform="rotate(-30 802.594 858.86)" fill="#181818"/>
<circle cx="865.894" cy="822.315" r="22.6295" transform="rotate(-30 865.894 822.315)" fill="#181818"/>
<circle cx="871.841" cy="978.794" r="22.6295" transform="rotate(-30 871.841 978.794)" fill="#181818"/>
<circle cx="935.139" cy="942.25" r="22.6295" transform="rotate(-30 935.139 942.25)" fill="#181818"/>
<circle cx="939.712" cy="859.653" r="22.6295" transform="rotate(-30 939.712 859.653)" fill="#181818"/>
<circle cx="798.023" cy="941.457" r="22.6295" transform="rotate(-30 798.023 941.457)" fill="#181818"/>
<path d="M329.48 726.62L427.527 883.174L231.432 883.174L329.48 726.62Z" fill="#C4C4C4"/>
<rect x="231.432" y="883.174" width="196.096" height="197.017" fill="#181818"/>
<rect x="382.914" y="306.566" width="50.6322" height="130.982" transform="rotate(-90 382.914 306.566)" fill="#181818"/>
<rect x="382.914" y="104.036" width="50.6322" height="130.982" transform="rotate(-90 382.914 104.036)" fill="#181818"/>
<rect x="513.896" y="255.934" width="50.6322" height="122.369" transform="rotate(-90 513.896 255.934)" fill="#181818"/>
<rect x="382.288" y="205.301" width="50.6322" height="130.982" transform="rotate(-90 382.288 205.301)" fill="#181818"/>
<rect x="513.27" y="154.667" width="50.6322" height="122.995" transform="rotate(-90 513.27 154.667)" fill="#181818"/>
<circle cx="578.979" cy="540.19" r="10.1858" fill="white"/>
<circle cx="664.633" cy="540.19" r="10.1858" fill="white"/>
<circle cx="750.287" cy="540.19" r="10.1858" fill="white"/>
<circle cx="835.941" cy="540.19" r="10.1858" fill="white"/>
<circle cx="921.595" cy="540.19" r="10.1858" fill="white"/>
<circle cx="578.979" cy="468.049" r="10.1858" fill="white"/>
<circle cx="664.633" cy="468.049" r="10.1858" fill="white"/>
<circle cx="750.287" cy="468.049" r="10.1858" fill="white"/>
<circle cx="835.941" cy="468.049" r="10.1858" fill="white"/>
<circle cx="921.595" cy="468.049" r="10.1858" fill="white"/>
<circle cx="582.336" cy="612.332" r="10.1858" fill="white"/>
<circle cx="667.99" cy="612.332" r="10.1858" fill="white"/>
<circle cx="753.644" cy="612.332" r="10.1858" fill="white"/>
<circle cx="839.299" cy="612.332" r="10.1858" fill="white"/>
<circle cx="924.953" cy="612.332" r="10.1858" fill="white"/>
</svg>
